<svg width="600" height="400" viewBox="0 0 600 400" xmlns="http://www.w3.org/2000/svg" role="img" aria-label="ZYURA airline-style boarding pass for insurance NFT. Flight FF777, departure 2025-11-14T06:53:19.000Z. Policy #1763099642576, Product 1. Premium $20.00, Coverage $2,000.00. Non-transferable proof of insurance.">
  <defs>
    <style>
      .brand { font-family: 'Segoe UI', Roboto, Helvetica, Arial, sans-serif; font-size: 28px; font-weight: bold; fill: #ffffff; }
      .label { font-family: 'Segoe UI', Roboto, Helvetica, Arial, sans-serif; font-size: 11px; font-weight: bold; fill: #3D5061; text-transform: uppercase; letter-spacing: 0.5px; }
      .value { font-family: 'Segoe UI', Roboto, Helvetica, Arial, sans-serif; font-size: 17px; font-weight: normal; fill: #0A2540; }
      .value-large { font-family: 'Segoe UI', Roboto, Helvetica, Arial, sans-serif; font-size: 22px; font-weight: bold; fill: #0A2540; }
      .footer-text { font-family: 'Segoe UI', Roboto, Helvetica, Arial, sans-serif; font-size: 10px; fill: #3D5061; }
      .barcode-label { font-family: 'Segoe UI', Roboto, Helvetica, Arial, sans-serif; font-size: 8px; fill: #3D5061; }
    </style>
    <linearGradient id="headerGrad" x1="0%" y1="0%" x2="100%" y2="0%">
      <stop offset="0%" style="stop-color:#0B1F3B;stop-opacity:1" />
      <stop offset="100%" style="stop-color:#153463;stop-opacity:1" />
    </linearGradient>
    <linearGradient id="accentGrad" x1="0%" y1="0%" x2="100%" y2="0%">
      <stop offset="0%" style="stop-color:#00B3A4;stop-opacity:1" />
      <stop offset="100%" style="stop-color:#28D0C2;stop-opacity:1" />
    </linearGradient>
    <mask id="perforationMask">
      <rect x="0" y="0" width="600" height="400" fill="white"/>
      <circle cx="420" cy="80" r="8" fill="black"/>
      <circle cx="420" cy="340" r="8" fill="black"/>
    </mask>
  </defs>
  
  <!-- Card background with mask for perforation notches -->
  <g mask="url(#perforationMask)">
    <rect x="0" y="0" width="600" height="400" fill="#F4F7FB" rx="16"/>
    <rect x="0" y="0" width="600" height="400" fill="none" stroke="#D7DFE7" stroke-width="1" rx="16"/>
  </g>
  
  <!-- Header bar with gradient -->
  <g id="header">
    <rect x="0" y="0" width="600" height="64" fill="url(#headerGrad)" rx="0" ry="0"/>
    <!-- Keep the rest of the card light; only the header is blue -->
    <rect x="0" y="64" width="600" height="64" fill="#F4F7FB"/>
    <rect x="0" y="64" width="600" height="4" fill="url(#accentGrad)"/>
    <text x="24" y="46" class="brand">ZYURA</text>
    <!-- Shield/Lock icon -->
    <g transform="translate(552, 28)">
      <path d="M 0 0 L 0 12 C 0 16 -4 20 -8 20 C -12 20 -16 16 -16 12 L -16 0 L -8 -4 Z" fill="none" stroke="#2EC4B6" stroke-width="2" stroke-linejoin="round"/>
      <line x1="-8" y1="12" x2="-8" y2="16" stroke="#2EC4B6" stroke-width="2" stroke-linecap="round"/>
      <rect x="-14" y="0" width="12" height="6" fill="none" stroke="#2EC4B6" stroke-width="2"/>
    </g>
  </g>
  
  <!-- Perforation line with dashed stroke -->
  <g id="perforation">
    <line x1="420" y1="88" x2="420" y2="332" stroke="#2EC4B6" stroke-width="2" stroke-dasharray="3,8"/>
  </g>
  
  <!-- Stub panel tinted background -->
  <rect x="428" y="76" width="156" height="256" fill="#E9F7F6" stroke="#D7DFE7" stroke-width="1" rx="8"/>
  
  <!-- Main ticket section (left) -->
  <g id="main">
    <!-- Flight + PNR section -->
    <text x="24" y="100" class="label">Flight</text>
    <text x="24" y="128" class="value-large">FF777</text>
    <text x="220" y="100" class="label">PNR</text>
    <text x="220" y="128" class="value-large">SYNC01</text>
    
    <!-- Departure section -->
    <text x="24" y="164" class="label">Departure (UTC)</text>
    <text x="24" y="188" class="value">2025-11-14T06:53:19.000Z</text>
    
    <!-- Premium chip -->
    <rect x="24" y="216" width="180" height="88" fill="#EFFBFA" stroke="#2EC4B6" stroke-width="1" rx="8"/>
    <text x="36" y="238" class="label">Premium</text>
    <text x="36" y="268" class="value" font-weight="bold">$20.00</text>
    
    <!-- Coverage chip -->
    <rect x="216" y="216" width="180" height="88" fill="#F0F5FF" stroke="#2B8CFF" stroke-width="1" rx="8"/>
    <text x="228" y="238" class="label">Coverage</text>
    <text x="228" y="268" class="value" font-weight="bold">$2,000.00</text>
  </g>
  
  <!-- Stub section (right) -->
  <g id="stub">
    <!-- Policy -->
    <text x="440" y="100" class="label">Policy</text>
    <text x="440" y="124" class="value">#1763099642576</text>
    
    <!-- Product -->
    <text x="440" y="156" class="label">Product</text>
    <text x="440" y="180" class="value">1</text>
    
    <!-- Barcode -->
    <g id="barcode">
      <rect x="440" y="216" width="136" height="68" fill="#ffffff" stroke="#D7DFE7" stroke-width="1" rx="4"/>
      <!-- Barcode stripes -->
      <rect x="448" y="224" width="4" height="36" fill="#0A2540"/>
      <rect x="455" y="224" width="2" height="36" fill="#0A2540"/>
      <rect x="460" y="224" width="5" height="36" fill="#0A2540"/>
      <rect x="468" y="224" width="2" height="36" fill="#0A2540"/>
      <rect x="473" y="224" width="3" height="36" fill="#0A2540"/>
      <rect x="479" y="224" width="6" height="36" fill="#0A2540"/>
      <rect x="488" y="224" width="2" height="36" fill="#0A2540"/>
      <rect x="493" y="224" width="4" height="36" fill="#0A2540"/>
      <rect x="500" y="224" width="3" height="36" fill="#0A2540"/>
      <rect x="506" y="224" width="2" height="36" fill="#0A2540"/>
      <rect x="511" y="224" width="5" height="36" fill="#0A2540"/>
      <rect x="519" y="224" width="3" height="36" fill="#0A2540"/>
      <rect x="525" y="224" width="2" height="36" fill="#0A2540"/>
      <rect x="530" y="224" width="4" height="36" fill="#0A2540"/>
      <rect x="537" y="224" width="6" height="36" fill="#0A2540"/>
      <rect x="546" y="224" width="2" height="36" fill="#0A2540"/>
      <rect x="551" y="224" width="3" height="36" fill="#0A2540"/>
      <rect x="557" y="224" width="5" height="36" fill="#0A2540"/>
      <rect x="565" y="224" width="2" height="36" fill="#0A2540"/>
      <text x="508" y="274" class="barcode-label" text-anchor="middle">POLICY #1763099642576</text>
    </g>
  </g>
  
  <!-- Footer -->
  <g id="footer">
    <rect x="0" y="340" width="600" height="60" fill="#E8F0FF" rx="0" ry="0"/>
    <rect x="0" y="384" width="600" height="16" fill="#E8F0FF" rx="16" ry="16"/>
    <line x1="24" y1="340" x2="576" y2="340" stroke="#D7DFE7" stroke-width="1"/>
    <text x="300" y="368" class="footer-text" text-anchor="middle">Non-transferable • Proof of Insurance</text>
  </g>
</svg>